ffmpeg started on 2016-11-24 at 19:52:10
Report written to "Output/NVENCh264/results/ffmpeg/crowd_run_2160p50hp14000k.log"
Command line:
Tools/ffmpeg/ffmpeg -benchmark -y -i Input/y4m/crowd_run_2160p50.y4m -c:v h264_nvenc -preset hp -b:v 14000k -an Output/NVENCh264/encoded/crowd_run_2160p50hp14000k.mkv
ffmpeg version N-82227-gdb23fde Copyright (c) 2000-2016 the FFmpeg developers
  built with gcc 5.4.0 (Ubuntu 5.4.0-6ubuntu1~16.04.2) 20160609
  configuration: --prefix=/home/jaroslav/ffmpeg_build --pkg-config-flags=--static --extra-cflags=-I/home/jaroslav/ffmpeg_build/include --extra-ldflags=-L/home/jaroslav/ffmpeg_build/lib --bindir=/home/jaroslav/bin --enable-gpl --enable-libass --enable-libfdk-aac --enable-libfreetype --enable-libmp3lame --enable-libopus --enable-libtheora --enable-libvorbis --enable-libvpx --enable-libx264 --enable-libx265 --enable-nvenc --enable-libmfx --enable-libxvid --enable-libgsm --enable-libopencore-amrnb --enable-version3 --enable-nonfree
  libavutil      55. 35.100 / 55. 35.100
  libavcodec     57. 66.101 / 57. 66.101
  libavformat    57. 57.100 / 57. 57.100
  libavdevice    57.  2.100 / 57.  2.100
  libavfilter     6. 66.100 /  6. 66.100
  libswscale      4.  3.100 /  4.  3.100
  libswresample   2.  4.100 /  2.  4.100
  libpostproc    54.  2.100 / 54.  2.100
Input #0, yuv4mpegpipe, from 'Input/y4m/crowd_run_2160p50.y4m':
  Duration: 00:00:10.00, start: 0.000000, bitrate: 4976642 kb/s
    Stream #0:0: Video: rawvideo (I420 / 0x30323449), yuv420p(progressive), 3840x2160, SAR 1:1 DAR 16:9, 50 fps, 50 tbr, 50 tbn, 50 tbc
Output #0, matroska, to 'Output/NVENCh264/encoded/crowd_run_2160p50hp14000k.mkv':
  Metadata:
    encoder         : Lavf57.57.100
    Stream #0:0: Video: h264 (h264_nvenc) (Main) (H264 / 0x34363248), yuv420p, 3840x2160 [SAR 1:1 DAR 16:9], q=-1--1, 14000 kb/s, 50 fps, 1k tbn, 50 tbc
    Metadata:
      encoder         : Lavc57.66.101 h264_nvenc
    Side data:
      cpb: bitrate max/min/avg: 0/0/14000000 buffer size: 28000000 vbv_delay: -1
Stream mapping:
  Stream #0:0 -> #0:0 (rawvideo (native) -> h264 (h264_nvenc))
Press [q] to stop, [?] for help
frame=   15 fps=0.0 q=0.0 size=       0kB time=00:00:00.00 bitrate=N/A speed=   0x    frame=   33 fps= 32 q=42.0 size=       1kB time=00:00:00.04 bitrate= 143.0kbits/s speed=0.0397x    frame=   51 fps= 33 q=42.0 size=       1kB time=00:00:00.40 bitrate=  14.6kbits/s speed=0.259x    frame=   69 fps= 33 q=42.0 size=       1kB time=00:00:00.76 bitrate=   7.7kbits/s speed=0.367x    frame=   87 fps= 34 q=42.0 size=       1kB time=00:00:01.12 bitrate=   5.2kbits/s speed=0.433x    frame=  105 fps= 34 q=42.0 size=       1kB time=00:00:01.48 bitrate=   4.0kbits/s speed=0.476x    frame=  123 fps= 34 q=42.0 size=       1kB time=00:00:01.84 bitrate=   3.2kbits/s speed=0.507x    frame=  141 fps= 34 q=42.0 size=       1kB time=00:00:02.20 bitrate=   2.7kbits/s speed=0.531x    frame=  142 fps= 29 q=42.0 size=       1kB time=00:00:02.22 bitrate=   2.6kbits/s speed=0.456x    frame=  143 fps= 19 q=42.0 size=       1kB time=00:00:02.24 bitrate=   2.6kbits/s speed= 0.3x    frame=  144 fps= 14 q=42.0 size=       1kB time=00:00:02.26 bitrate=   2.6kbits/s speed=0.214x    frame=  161 fps= 15 q=42.0 size=       1kB time=00:00:02.60 bitrate=   2.3kbits/s speed=0.235x    frame=  178 fps= 15 q=42.0 size=    5152kB time=00:00:02.94 bitrate=14349.5kbits/s speed=0.253x    frame=  195 fps= 16 q=42.0 size=    5152kB time=00:00:03.28 bitrate=12862.5kbits/s speed=0.271x    frame=  212 fps= 17 q=42.0 size=    5152kB time=00:00:03.62 bitrate=11654.7kbits/s speed=0.287x    frame=  229 fps= 17 q=42.0 size=    5152kB time=00:00:03.96 bitrate=10654.3kbits/s speed=0.302x    frame=  247 fps= 18 q=42.0 size=    5152kB time=00:00:04.32 bitrate=9766.7kbits/s speed=0.317x    frame=  265 fps= 19 q=42.0 size=    5152kB time=00:00:04.68 bitrate=9015.6kbits/s speed=0.33x    frame=  282 fps= 19 q=42.0 size=    8655kB time=00:00:05.02 bitrate=14120.9kbits/s speed=0.342x    frame=  300 fps= 19 q=42.0 size=    8655kB time=00:00:05.38 bitrate=13176.2kbits/s speed=0.347x    frame=  318 fps= 20 q=42.0 size=    8655kB time=00:00:05.74 bitrate=12349.9kbits/s speed=0.358x    frame=  336 fps= 20 q=42.0 size=    8655kB time=00:00:06.10 bitrate=11621.2kbits/s speed=0.369x    frame=  354 fps= 21 q=42.0 size=    8655kB time=00:00:06.46 bitrate=10973.7kbits/s speed=0.379x    frame=  372 fps= 21 q=42.0 size=    8655kB time=00:00:06.82 bitrate=10394.5kbits/s speed=0.388x    frame=  390 fps= 22 q=42.0 size=    8655kB time=00:00:07.18 bitrate=9873.4kbits/s speed=0.397x    frame=  408 fps= 22 q=42.0 size=    8655kB time=00:00:07.54 bitrate=9402.1kbits/s speed=0.405x    frame=  421 fps= 22 q=43.0 size=    8655kB time=00:00:07.80 bitrate=9088.7kbits/s speed=0.405x    frame=  438 fps= 22 q=42.0 size=   13789kB time=00:00:08.14 bitrate=13875.0kbits/s speed=0.411x    frame=  456 fps= 22 q=42.0 size=   13789kB time=00:00:08.50 bitrate=13287.4kbits/s speed=0.419x    frame=  474 fps= 23 q=42.0 size=   13789kB time=00:00:08.86 bitrate=12747.6kbits/s speed=0.426x    frame=  492 fps= 23 q=42.0 size=   13789kB time=00:00:09.22 bitrate=12249.9kbits/s speed=0.432x    frame=  500 fps= 23 q=42.0 Lsize=   17115kB time=00:00:09.98 bitrate=14047.3kbits/s speed=0.462x    
video:17110kB audio:0kB subtitle:0kB other streams:0kB global headers:0kB muxing overhead: 0.027750%
bench: utime=1.156s
bench: maxrss=979924kB
